<svg width="64" height="64" viewBox="0 0 64 64" fill="none" xmlns="http://www.w3.org/2000/svg">
<rect width="64" height="64" fill="#EFF1F5"/>
<path d="M46.4999 29C39.5 12 33 11 29.4999 3L14.9999 28.5C26.8764 28.7854 33.756 28.9047 46.4999 29Z" fill="#E64553"/>
<path d="M37.5 36.9999C38.1873 36.8174 42.1952 37.1948 43 37.9999C43.4999 38.5 43.5123 41.5934 43.5 43.9999C43.4525 45.0565 43.2119 45.3558 42.5 45.4999C40.7743 45.8114 39.8057 45.9752 38 45.4999C36.7101 45.2245 36.4615 44.8599 36.5 43.9999C36.4783 38.8028 36.6912 37.2146 37.5 36.9999Z" fill="#7287FD"/>
<path fill-rule="evenodd" clip-rule="evenodd" d="M18.5 62.4999C17.4999 62.5 15.3751 62.4999 15 60.9999C14.6357 59.543 14.8473 58.4725 15.1495 56.9438C15.2621 56.3741 15.3873 55.7407 15.5 55C15.6892 53.6757 15.4584 50.7601 15.176 47.1927C14.7121 41.332 14.1089 33.7123 14.9999 28.5C26.8764 28.7854 33.756 28.9047 46.4999 29C47.9999 36.5 50.4999 53.5 50 60.4999C48.3098 61.4459 44.2026 61.9397 30.5 62.2757L30 46C29.6942 45.9427 29.3963 45.8862 29.105 45.831C25.8122 45.2069 23.3731 44.7446 20 45V62.4774C19.5081 62.485 19.0082 62.4924 18.5 62.4999ZM37.5 36.9999C38.1873 36.8174 42.1952 37.1948 43 37.9999C43.4999 38.5 43.5123 41.5934 43.5 43.9999C43.4525 45.0565 43.2119 45.3558 42.5 45.4999C40.7743 45.8114 39.8057 45.9752 38 45.4999C36.7101 45.2245 36.4615 44.8599 36.5 43.9999C36.4783 38.8028 36.6912 37.2146 37.5 36.9999Z" fill="#A6E3A1"/>
<path d="M20 45V62.4774C24.0142 62.4157 27.4888 62.3495 30.5 62.2757L30 46C29.6942 45.9427 29.3963 45.8862 29.105 45.831C25.8122 45.2069 23.3731 44.7446 20 45Z" fill="#DC8A78"/>
<path d="M46.4999 29C47.9999 36.5 50.4999 53.5 50 60.4999C48.3098 61.4459 44.2026 61.9397 30.5 62.2757M46.4999 29C39.5 12 33 11 29.4999 3L14.9999 28.5M46.4999 29C33.756 28.9047 26.8764 28.7854 14.9999 28.5M14.9999 28.5C14.1089 33.7123 14.7121 41.332 15.176 47.1927C15.4584 50.7601 15.6892 53.6757 15.5 55C15.3873 55.7407 15.2621 56.3741 15.1495 56.9438C14.8473 58.4725 14.6357 59.543 15 60.9999C15.3751 62.4999 17.4999 62.5 18.5 62.4999C19.0082 62.4924 19.5081 62.485 20 62.4774M20 62.4774V45C23.3731 44.7446 25.8122 45.2069 29.105 45.831C29.3963 45.8862 29.6942 45.9427 30 46L30.5 62.2757M20 62.4774C24.0142 62.4157 27.4888 62.3495 30.5 62.2757M37.5 36.9999C38.1873 36.8174 42.1952 37.1948 43 37.9999C43.4999 38.5 43.5123 41.5934 43.5 43.9999C43.4525 45.0565 43.2119 45.3558 42.5 45.4999C40.7743 45.8114 39.8057 45.9752 38 45.4999C36.7101 45.2245 36.4615 44.8599 36.5 43.9999C36.4783 38.8028 36.6912 37.2146 37.5 36.9999Z" stroke="black" stroke-width="2"/>
<ellipse cx="28" cy="54.5" rx="1" ry="1.5" fill="black"/>
</svg>
